<mxfile host="Electron" modified="2023-11-13T12:24:08.076Z" agent="Mozilla/5.0 (Windows NT 10.0; Win64; x64) AppleWebKit/537.36 (KHTML, like Gecko) draw.io/22.0.3 Chrome/114.0.5735.289 Electron/25.8.4 Safari/537.36" etag="4yB5n1oowKo3muSV8orJ" version="22.0.3" type="device">
  <diagram name="Sayfa -1" id="njvGoy6qOHIDCtlmwuU5">
    <mxGraphModel dx="2896" dy="1628" grid="1" gridSize="10" guides="1" tooltips="1" connect="1" arrows="1" fold="1" page="0" pageScale="1" pageWidth="827" pageHeight="1169" math="0" shadow="0">
      <root>
        <mxCell id="0" />
        <mxCell id="1" parent="0" />
        <mxCell id="_6Xi9WKjQx42au5cPFwy-1" value="Müşteri" style="shape=umlActor;verticalLabelPosition=bottom;verticalAlign=top;html=1;labelBackgroundColor=none;fillColor=#f0c147;strokeColor=#AF571A;rounded=0;fontSize=20;fontColor=#AF571A;fontStyle=1" parent="1" vertex="1">
          <mxGeometry x="1650" y="505" width="60" height="100" as="geometry" />
        </mxCell>
        <mxCell id="_6Xi9WKjQx42au5cPFwy-3" value="Admin" style="shape=umlActor;verticalLabelPosition=bottom;verticalAlign=top;html=1;labelBackgroundColor=none;fillColor=#f0c147;strokeColor=#AF571A;rounded=0;fontSize=20;fontColor=#AF571A;fontStyle=1" parent="1" vertex="1">
          <mxGeometry x="-150" y="505" width="60" height="100" as="geometry" />
        </mxCell>
        <mxCell id="_6Xi9WKjQx42au5cPFwy-7" value="Harita üzerinde satıcıları görebilme" style="ellipse;whiteSpace=wrap;html=1;align=center;labelBackgroundColor=none;fillColor=#f0c147;strokeColor=#AF571A;rounded=0;" parent="1" vertex="1">
          <mxGeometry x="1450" y="360" width="130" height="70" as="geometry" />
        </mxCell>
        <mxCell id="_6Xi9WKjQx42au5cPFwy-8" value="Satıcıların ürünlerini gör" style="ellipse;whiteSpace=wrap;html=1;align=center;labelBackgroundColor=none;fillColor=#f0c147;strokeColor=#AF571A;rounded=0;" parent="1" vertex="1">
          <mxGeometry x="850" y="690" width="130" height="70" as="geometry" />
        </mxCell>
        <mxCell id="_6Xi9WKjQx42au5cPFwy-9" value="Satıcıları türünü seçebileme" style="ellipse;whiteSpace=wrap;html=1;align=center;labelBackgroundColor=none;fillColor=#f0c147;strokeColor=#AF571A;rounded=0;" parent="1" vertex="1">
          <mxGeometry x="1450" y="690" width="130" height="70" as="geometry" />
        </mxCell>
        <mxCell id="_6Xi9WKjQx42au5cPFwy-10" value="Ürün Ekle" style="ellipse;whiteSpace=wrap;html=1;align=center;labelBackgroundColor=none;fillColor=#f0c147;strokeColor=#AF571A;rounded=0;" parent="1" vertex="1">
          <mxGeometry x="310" y="70" width="130" height="70" as="geometry" />
        </mxCell>
        <mxCell id="_6Xi9WKjQx42au5cPFwy-12" value="Satıcıları Yönet" style="ellipse;whiteSpace=wrap;html=1;align=center;labelBackgroundColor=none;fillColor=#f0c147;strokeColor=#AF571A;rounded=0;fontSize=13;" parent="1" vertex="1">
          <mxGeometry x="11" y="850" width="130" height="70" as="geometry" />
        </mxCell>
        <mxCell id="_6Xi9WKjQx42au5cPFwy-14" value="" style="endArrow=open;endFill=1;endSize=12;html=1;rounded=0;exitX=0.5;exitY=0.5;exitDx=0;exitDy=0;exitPerimeter=0;entryX=1;entryY=0.5;entryDx=0;entryDy=0;labelBackgroundColor=none;strokeColor=#AF571A;fontColor=default;fillColor=#ffe6cc;" parent="1" source="_6Xi9WKjQx42au5cPFwy-1" target="_6Xi9WKjQx42au5cPFwy-9" edge="1">
          <mxGeometry width="160" relative="1" as="geometry">
            <mxPoint x="1548" y="569" as="sourcePoint" />
            <mxPoint x="1498" y="669" as="targetPoint" />
          </mxGeometry>
        </mxCell>
        <mxCell id="_6Xi9WKjQx42au5cPFwy-15" value="" style="endArrow=open;endFill=1;endSize=12;html=1;rounded=0;exitX=0.5;exitY=0.5;exitDx=0;exitDy=0;exitPerimeter=0;entryX=1;entryY=0.5;entryDx=0;entryDy=0;labelBackgroundColor=none;strokeColor=#AF571A;fontColor=default;fillColor=#ffe6cc;" parent="1" source="_6Xi9WKjQx42au5cPFwy-1" target="_6Xi9WKjQx42au5cPFwy-7" edge="1">
          <mxGeometry width="160" relative="1" as="geometry">
            <mxPoint x="1567" y="588" as="sourcePoint" />
            <mxPoint x="1468" y="589" as="targetPoint" />
          </mxGeometry>
        </mxCell>
        <mxCell id="_6Xi9WKjQx42au5cPFwy-18" value="" style="endArrow=open;endFill=1;endSize=12;html=1;rounded=0;entryX=0;entryY=0.5;entryDx=0;entryDy=0;exitX=0.5;exitY=0.5;exitDx=0;exitDy=0;exitPerimeter=0;labelBackgroundColor=none;strokeColor=#AF571A;fontColor=default;fillColor=#ffe6cc;" parent="1" source="_6Xi9WKjQx42au5cPFwy-3" target="_6Xi9WKjQx42au5cPFwy-12" edge="1">
          <mxGeometry width="160" relative="1" as="geometry">
            <mxPoint x="750" y="696" as="sourcePoint" />
            <mxPoint x="651" y="697" as="targetPoint" />
          </mxGeometry>
        </mxCell>
        <mxCell id="_6Xi9WKjQx42au5cPFwy-19" value="ürün filtreleyebilme&amp;nbsp;" style="ellipse;whiteSpace=wrap;html=1;align=center;labelBackgroundColor=none;fillColor=#f0c147;strokeColor=#AF571A;rounded=0;" parent="1" vertex="1">
          <mxGeometry x="1150" y="690" width="130" height="70" as="geometry" />
        </mxCell>
        <mxCell id="_6Xi9WKjQx42au5cPFwy-22" value="Adres Filtreleme" style="ellipse;whiteSpace=wrap;html=1;align=center;labelBackgroundColor=none;fillColor=#f0c147;strokeColor=#AF571A;rounded=0;" parent="1" vertex="1">
          <mxGeometry x="1150" y="360" width="130" height="70" as="geometry" />
        </mxCell>
        <mxCell id="_6Xi9WKjQx42au5cPFwy-27" value="Ürün adı ekle" style="ellipse;whiteSpace=wrap;html=1;align=center;labelBackgroundColor=none;fillColor=#f0c147;strokeColor=#AF571A;rounded=0;" parent="1" vertex="1">
          <mxGeometry x="625.5" y="-20" width="130" height="70" as="geometry" />
        </mxCell>
        <mxCell id="_6Xi9WKjQx42au5cPFwy-29" value="Ürün fiyatı&amp;nbsp; ekle" style="ellipse;whiteSpace=wrap;html=1;align=center;labelBackgroundColor=none;fillColor=#f0c147;strokeColor=#AF571A;rounded=0;" parent="1" vertex="1">
          <mxGeometry x="625.5" y="70" width="130" height="70" as="geometry" />
        </mxCell>
        <mxCell id="_6Xi9WKjQx42au5cPFwy-31" value="Ürün fotoğrafı&amp;nbsp;ekle" style="ellipse;whiteSpace=wrap;html=1;align=center;labelBackgroundColor=none;fillColor=#f0c147;strokeColor=#AF571A;rounded=0;" parent="1" vertex="1">
          <mxGeometry x="625.5" y="160" width="130" height="70" as="geometry" />
        </mxCell>
        <mxCell id="_6Xi9WKjQx42au5cPFwy-37" value="Satıcı Profili Güncelle" style="ellipse;whiteSpace=wrap;html=1;align=center;labelBackgroundColor=none;fillColor=#f0c147;strokeColor=#AF571A;rounded=0;fontSize=12;" parent="1" vertex="1">
          <mxGeometry x="321" y="680" width="130" height="70" as="geometry" />
        </mxCell>
        <mxCell id="_6Xi9WKjQx42au5cPFwy-39" value="Satıcı Profili Ekle" style="ellipse;whiteSpace=wrap;html=1;align=center;labelBackgroundColor=none;fillColor=#f0c147;strokeColor=#AF571A;rounded=0;fontSize=12;" parent="1" vertex="1">
          <mxGeometry x="321" y="1020" width="130" height="70" as="geometry" />
        </mxCell>
        <mxCell id="bk1XQgciyBSgys9-w1uZ-8" value="Ürünleri Yönet" style="ellipse;whiteSpace=wrap;html=1;labelBackgroundColor=none;fillColor=#f0c147;strokeColor=#AF571A;rounded=0;" parent="1" vertex="1">
          <mxGeometry x="11" y="206" width="130" height="70" as="geometry" />
        </mxCell>
        <mxCell id="bk1XQgciyBSgys9-w1uZ-10" value="Ürün Güncelle" style="ellipse;whiteSpace=wrap;html=1;labelBackgroundColor=none;fillColor=#f0c147;strokeColor=#AF571A;rounded=0;" parent="1" vertex="1">
          <mxGeometry x="310" y="360" width="130" height="70" as="geometry" />
        </mxCell>
        <mxCell id="bk1XQgciyBSgys9-w1uZ-12" value="Ürün Fotoğrafı Güncelle" style="ellipse;whiteSpace=wrap;html=1;labelBackgroundColor=none;fillColor=#f0c147;strokeColor=#AF571A;rounded=0;" parent="1" vertex="1">
          <mxGeometry x="625.5" y="360" width="130" height="70" as="geometry" />
        </mxCell>
        <mxCell id="bk1XQgciyBSgys9-w1uZ-13" value="Ürün Fiyatı Güncelle" style="ellipse;whiteSpace=wrap;html=1;labelBackgroundColor=none;fillColor=#f0c147;strokeColor=#AF571A;rounded=0;" parent="1" vertex="1">
          <mxGeometry x="625.5" y="450" width="130" height="70" as="geometry" />
        </mxCell>
        <mxCell id="Hc_B2yePcUhUJdmI350T-1" value="Satıcı Profili Sil" style="ellipse;whiteSpace=wrap;html=1;labelBackgroundColor=none;fillColor=#f0c147;strokeColor=#AF571A;rounded=0;fontSize=12;" parent="1" vertex="1">
          <mxGeometry x="321" y="840" width="130" height="70" as="geometry" />
        </mxCell>
        <mxCell id="Hc_B2yePcUhUJdmI350T-3" value="" style="endArrow=classic;html=1;rounded=0;entryX=0;entryY=0.5;entryDx=0;entryDy=0;exitX=0.5;exitY=0.5;exitDx=0;exitDy=0;exitPerimeter=0;labelBackgroundColor=none;strokeColor=#AF571A;fontColor=default;fillColor=#ffe6cc;" parent="1" source="_6Xi9WKjQx42au5cPFwy-3" target="bk1XQgciyBSgys9-w1uZ-8" edge="1">
          <mxGeometry width="50" height="50" relative="1" as="geometry">
            <mxPoint x="550" y="540" as="sourcePoint" />
            <mxPoint x="600" y="490" as="targetPoint" />
          </mxGeometry>
        </mxCell>
        <mxCell id="PiyrbT2MbsPzOBHfRzsW-1" value="Ürün sil" style="ellipse;whiteSpace=wrap;html=1;labelBackgroundColor=none;fillColor=#f0c147;strokeColor=#AF571A;rounded=0;" parent="1" vertex="1">
          <mxGeometry x="310" y="206" width="130" height="70" as="geometry" />
        </mxCell>
        <mxCell id="PiyrbT2MbsPzOBHfRzsW-3" value="Satıcı Profil Fotoğrafı Güncelle" style="ellipse;whiteSpace=wrap;html=1;labelBackgroundColor=none;fillColor=#f0c147;strokeColor=#AF571A;rounded=0;" parent="1" vertex="1">
          <mxGeometry x="625.5" y="580" width="130" height="70" as="geometry" />
        </mxCell>
        <mxCell id="PiyrbT2MbsPzOBHfRzsW-4" value="Satıcı Profil Adı Güncelle" style="ellipse;whiteSpace=wrap;html=1;labelBackgroundColor=none;fillColor=#f0c147;strokeColor=#AF571A;rounded=0;" parent="1" vertex="1">
          <mxGeometry x="625.5" y="680" width="130" height="70" as="geometry" />
        </mxCell>
        <mxCell id="PiyrbT2MbsPzOBHfRzsW-5" value="&lt;span style=&quot;border-color: var(--border-color); font-size: 13px;&quot;&gt;&lt;font style=&quot;border-color: var(--border-color); font-size: 13px;&quot;&gt;&amp;lt;&amp;lt;extend&amp;gt;&amp;gt;&lt;/font&gt;&lt;/span&gt;" style="endArrow=block;endSize=16;endFill=0;html=1;rounded=0;entryX=0;entryY=0.5;entryDx=0;entryDy=0;exitX=1;exitY=0.5;exitDx=0;exitDy=0;labelBackgroundColor=#FFFFFF;strokeColor=#AF571A;fontColor=#AF571A;fillColor=#ffe6cc;fontSize=13;fontStyle=1" parent="1" source="_6Xi9WKjQx42au5cPFwy-37" target="PiyrbT2MbsPzOBHfRzsW-3" edge="1">
          <mxGeometry x="-0.0056" width="160" relative="1" as="geometry">
            <mxPoint x="679" y="730" as="sourcePoint" />
            <mxPoint x="839" y="730" as="targetPoint" />
            <mxPoint as="offset" />
          </mxGeometry>
        </mxCell>
        <mxCell id="PiyrbT2MbsPzOBHfRzsW-6" value="&lt;span style=&quot;border-color: var(--border-color); font-size: 13px;&quot;&gt;&lt;font style=&quot;border-color: var(--border-color); font-size: 13px;&quot;&gt;&amp;lt;&amp;lt;extend&amp;gt;&amp;gt;&lt;/font&gt;&lt;/span&gt;" style="endArrow=block;endSize=16;endFill=0;html=1;rounded=0;entryX=0;entryY=0.5;entryDx=0;entryDy=0;exitX=1;exitY=0.5;exitDx=0;exitDy=0;labelBackgroundColor=#FFFFFF;strokeColor=#AF571A;fontColor=#AF571A;fillColor=#ffe6cc;fontSize=13;fontStyle=1" parent="1" source="_6Xi9WKjQx42au5cPFwy-37" target="PiyrbT2MbsPzOBHfRzsW-4" edge="1">
          <mxGeometry width="160" relative="1" as="geometry">
            <mxPoint x="540" y="733" as="sourcePoint" />
            <mxPoint x="639" y="640" as="targetPoint" />
          </mxGeometry>
        </mxCell>
        <mxCell id="PiyrbT2MbsPzOBHfRzsW-7" value="Satıcı Profil Afişi Güncelle" style="ellipse;whiteSpace=wrap;html=1;labelBackgroundColor=none;fillColor=#f0c147;strokeColor=#AF571A;rounded=0;" parent="1" vertex="1">
          <mxGeometry x="625.5" y="780" width="130" height="70" as="geometry" />
        </mxCell>
        <mxCell id="PiyrbT2MbsPzOBHfRzsW-8" value="&lt;span style=&quot;border-color: var(--border-color); font-size: 13px;&quot;&gt;&lt;font style=&quot;border-color: var(--border-color); font-size: 13px;&quot;&gt;&amp;lt;&amp;lt;extend&amp;gt;&amp;gt;&lt;/font&gt;&lt;/span&gt;" style="endArrow=block;endSize=16;endFill=0;html=1;rounded=0;entryX=0;entryY=0.5;entryDx=0;entryDy=0;exitX=1;exitY=0.5;exitDx=0;exitDy=0;labelBackgroundColor=#FFFFFF;strokeColor=#AF571A;fontColor=#AF571A;fillColor=#ffe6cc;fontSize=13;fontStyle=1" parent="1" source="_6Xi9WKjQx42au5cPFwy-37" target="PiyrbT2MbsPzOBHfRzsW-7" edge="1">
          <mxGeometry x="0.0044" width="160" relative="1" as="geometry">
            <mxPoint x="540" y="733" as="sourcePoint" />
            <mxPoint x="649" y="733" as="targetPoint" />
            <mxPoint as="offset" />
          </mxGeometry>
        </mxCell>
        <mxCell id="PiyrbT2MbsPzOBHfRzsW-9" value="Satıcı Profil Fotoğrafı Ekle" style="ellipse;whiteSpace=wrap;html=1;labelBackgroundColor=none;fillColor=#f0c147;strokeColor=#AF571A;rounded=0;" parent="1" vertex="1">
          <mxGeometry x="630" y="877.5" width="130" height="70" as="geometry" />
        </mxCell>
        <mxCell id="PiyrbT2MbsPzOBHfRzsW-10" value="Satıcı Profil Adı Ekle" style="ellipse;whiteSpace=wrap;html=1;labelBackgroundColor=none;fillColor=#f0c147;strokeColor=#AF571A;rounded=0;" parent="1" vertex="1">
          <mxGeometry x="630" y="972.5" width="130" height="70" as="geometry" />
        </mxCell>
        <mxCell id="PiyrbT2MbsPzOBHfRzsW-11" value="&lt;span style=&quot;border-color: var(--border-color); font-size: 13px;&quot;&gt;&amp;lt;&amp;lt;include&amp;gt;&amp;gt;&lt;/span&gt;" style="endArrow=block;endSize=16;endFill=0;html=1;rounded=0;entryX=0;entryY=0.5;entryDx=0;entryDy=0;exitX=1;exitY=0.5;exitDx=0;exitDy=0;labelBackgroundColor=#FFFFFF;strokeColor=#AF571A;fontColor=#AF571A;fillColor=#ffe6cc;fontSize=13;fontStyle=1" parent="1" source="_6Xi9WKjQx42au5cPFwy-39" target="PiyrbT2MbsPzOBHfRzsW-9" edge="1">
          <mxGeometry width="160" relative="1" as="geometry">
            <mxPoint x="549" y="998" as="sourcePoint" />
            <mxPoint x="858" y="1005" as="targetPoint" />
          </mxGeometry>
        </mxCell>
        <mxCell id="PiyrbT2MbsPzOBHfRzsW-12" value="&lt;span style=&quot;border-color: var(--border-color); font-size: 13px;&quot;&gt;&amp;lt;&amp;lt;include&amp;gt;&amp;gt;&lt;/span&gt;" style="endArrow=block;endSize=16;endFill=0;html=1;rounded=0;entryX=0;entryY=0.5;entryDx=0;entryDy=0;exitX=1;exitY=0.5;exitDx=0;exitDy=0;labelBackgroundColor=#FFFFFF;strokeColor=#AF571A;fontColor=#AF571A;fillColor=#ffe6cc;fontSize=13;fontStyle=1" parent="1" source="_6Xi9WKjQx42au5cPFwy-39" target="PiyrbT2MbsPzOBHfRzsW-10" edge="1">
          <mxGeometry width="160" relative="1" as="geometry">
            <mxPoint x="549" y="998" as="sourcePoint" />
            <mxPoint x="658" y="915" as="targetPoint" />
          </mxGeometry>
        </mxCell>
        <mxCell id="PiyrbT2MbsPzOBHfRzsW-13" value="Satıcı Profil Afişi Ekle" style="ellipse;whiteSpace=wrap;html=1;labelBackgroundColor=none;fillColor=#f0c147;strokeColor=#AF571A;rounded=0;" parent="1" vertex="1">
          <mxGeometry x="630" y="1072.5" width="130" height="70" as="geometry" />
        </mxCell>
        <mxCell id="PiyrbT2MbsPzOBHfRzsW-14" value="&lt;span style=&quot;border-color: var(--border-color); font-size: 13px;&quot;&gt;&lt;font style=&quot;border-color: var(--border-color); font-size: 13px;&quot;&gt;&amp;lt;&amp;lt;extend&amp;gt;&amp;gt;&lt;/font&gt;&lt;/span&gt;" style="endArrow=block;endSize=16;endFill=0;html=1;rounded=0;entryX=0;entryY=0.5;entryDx=0;entryDy=0;exitX=1;exitY=0.5;exitDx=0;exitDy=0;labelBackgroundColor=#FFFFFF;strokeColor=#AF571A;fontColor=#AF571A;fillColor=#ffe6cc;fontSize=13;fontStyle=1" parent="1" source="_6Xi9WKjQx42au5cPFwy-39" target="PiyrbT2MbsPzOBHfRzsW-13" edge="1">
          <mxGeometry width="160" relative="1" as="geometry">
            <mxPoint x="549" y="998" as="sourcePoint" />
            <mxPoint x="668" y="1008" as="targetPoint" />
          </mxGeometry>
        </mxCell>
        <mxCell id="PiyrbT2MbsPzOBHfRzsW-16" value="" style="endArrow=classic;html=1;rounded=0;entryX=0;entryY=0.5;entryDx=0;entryDy=0;exitX=0.5;exitY=0.5;exitDx=0;exitDy=0;exitPerimeter=0;labelBackgroundColor=none;strokeColor=#AF571A;fontColor=default;fillColor=#ffe6cc;" parent="1" source="_6Xi9WKjQx42au5cPFwy-3" target="PiyrbT2MbsPzOBHfRzsW-19" edge="1">
          <mxGeometry width="50" height="50" relative="1" as="geometry">
            <mxPoint x="620" y="770" as="sourcePoint" />
            <mxPoint x="840" y="557" as="targetPoint" />
          </mxGeometry>
        </mxCell>
        <mxCell id="PiyrbT2MbsPzOBHfRzsW-17" value="" style="endArrow=classic;html=1;rounded=0;exitX=0.5;exitY=0.5;exitDx=0;exitDy=0;exitPerimeter=0;entryX=1;entryY=0.5;entryDx=0;entryDy=0;labelBackgroundColor=none;strokeColor=#AF571A;fontColor=default;fillColor=#ffe6cc;" parent="1" source="_6Xi9WKjQx42au5cPFwy-1" target="PiyrbT2MbsPzOBHfRzsW-19" edge="1">
          <mxGeometry width="50" height="50" relative="1" as="geometry">
            <mxPoint x="640" y="570" as="sourcePoint" />
            <mxPoint x="960" y="557" as="targetPoint" />
            <Array as="points">
              <mxPoint x="1260" y="555" />
            </Array>
          </mxGeometry>
        </mxCell>
        <mxCell id="PiyrbT2MbsPzOBHfRzsW-19" value="Satıcıların profiilerini gör" style="ellipse;whiteSpace=wrap;html=1;align=center;labelBackgroundColor=none;fillColor=#f0c147;strokeColor=#AF571A;rounded=0;" parent="1" vertex="1">
          <mxGeometry x="850" y="520" width="130" height="70" as="geometry" />
        </mxCell>
        <mxCell id="UkPt-XKHlvS3W4uo-A7I-1" value="satıcı adresi ekle" style="ellipse;whiteSpace=wrap;html=1;align=center;labelBackgroundColor=none;fillColor=#f0c147;strokeColor=#AF571A;rounded=0;" parent="1" vertex="1">
          <mxGeometry x="630" y="1162.5" width="130" height="70" as="geometry" />
        </mxCell>
        <mxCell id="RN2nyBrvlrK0-XFwS11z-4" value="&amp;lt;&amp;lt;include&amp;gt;&amp;gt;" style="endArrow=block;endSize=16;endFill=0;html=1;rounded=0;entryX=0;entryY=0.5;entryDx=0;entryDy=0;exitX=1;exitY=0.5;exitDx=0;exitDy=0;labelBackgroundColor=#FFFFFF;strokeColor=#AF571A;fontColor=#AF571A;fillColor=#ffe6cc;fontSize=13;fontStyle=1" parent="1" source="_6Xi9WKjQx42au5cPFwy-39" target="UkPt-XKHlvS3W4uo-A7I-1" edge="1">
          <mxGeometry width="160" relative="1" as="geometry">
            <mxPoint x="519" y="990" as="sourcePoint" />
            <mxPoint x="658" y="1125" as="targetPoint" />
          </mxGeometry>
        </mxCell>
        <mxCell id="RN2nyBrvlrK0-XFwS11z-5" value="&lt;b style=&quot;border-color: var(--border-color); font-size: 13px;&quot;&gt;&amp;lt;&amp;lt;include&amp;gt;&amp;gt;&lt;/b&gt;" style="endArrow=block;endSize=16;endFill=0;html=1;rounded=0;entryX=0.5;entryY=0;entryDx=0;entryDy=0;exitX=0.5;exitY=1;exitDx=0;exitDy=0;labelBackgroundColor=#FFFFFF;strokeColor=#AF571A;fontColor=#AF571A;fillColor=#ffe6cc;fontSize=13;" parent="1" source="PiyrbT2MbsPzOBHfRzsW-19" target="_6Xi9WKjQx42au5cPFwy-8" edge="1">
          <mxGeometry width="160" relative="1" as="geometry">
            <mxPoint x="550" y="990" as="sourcePoint" />
            <mxPoint x="689" y="930" as="targetPoint" />
          </mxGeometry>
        </mxCell>
        <mxCell id="RN2nyBrvlrK0-XFwS11z-26" value="Ürün adı ekle" style="ellipse;whiteSpace=wrap;html=1;align=center;labelBackgroundColor=none;fillColor=#f0c147;strokeColor=#AF571A;rounded=0;" parent="1" vertex="1">
          <mxGeometry x="625.5" y="270" width="130" height="70" as="geometry" />
        </mxCell>
        <mxCell id="RN2nyBrvlrK0-XFwS11z-27" value="&lt;b style=&quot;border-color: var(--border-color); font-size: 13px;&quot;&gt;&lt;font style=&quot;border-color: var(--border-color); font-size: 13px;&quot;&gt;&amp;lt;&amp;lt;extend&amp;gt;&amp;gt;&lt;/font&gt;&lt;/b&gt;" style="endArrow=block;endSize=16;endFill=0;html=1;rounded=0;entryX=0;entryY=0.5;entryDx=0;entryDy=0;exitX=1;exitY=0.5;exitDx=0;exitDy=0;labelBackgroundColor=#FFFFFF;strokeColor=#AF571A;fontColor=#AF571A;fillColor=#ffe6cc;fontSize=13;" parent="1" source="bk1XQgciyBSgys9-w1uZ-10" target="RN2nyBrvlrK0-XFwS11z-26" edge="1">
          <mxGeometry width="160" relative="1" as="geometry">
            <mxPoint x="461" y="725" as="sourcePoint" />
            <mxPoint x="649" y="640" as="targetPoint" />
          </mxGeometry>
        </mxCell>
        <mxCell id="RN2nyBrvlrK0-XFwS11z-28" value="&lt;b style=&quot;border-color: var(--border-color); font-size: 13px;&quot;&gt;&lt;font style=&quot;border-color: var(--border-color); font-size: 13px;&quot;&gt;&amp;lt;&amp;lt;extend&amp;gt;&amp;gt;&lt;/font&gt;&lt;/b&gt;" style="endArrow=block;endSize=16;endFill=0;html=1;rounded=0;entryX=0;entryY=0.5;entryDx=0;entryDy=0;exitX=1;exitY=0.5;exitDx=0;exitDy=0;labelBackgroundColor=#FFFFFF;strokeColor=#AF571A;fontColor=#AF571A;fillColor=#ffe6cc;fontSize=13;" parent="1" source="bk1XQgciyBSgys9-w1uZ-10" target="bk1XQgciyBSgys9-w1uZ-13" edge="1">
          <mxGeometry width="160" relative="1" as="geometry">
            <mxPoint x="461" y="373" as="sourcePoint" />
            <mxPoint x="640" y="315" as="targetPoint" />
          </mxGeometry>
        </mxCell>
        <mxCell id="RN2nyBrvlrK0-XFwS11z-29" value="&lt;b style=&quot;border-color: var(--border-color); font-size: 13px;&quot;&gt;&lt;font style=&quot;border-color: var(--border-color); font-size: 13px;&quot;&gt;&amp;lt;&amp;lt;extend&amp;gt;&amp;gt;&lt;/font&gt;&lt;/b&gt;" style="endArrow=block;endSize=16;endFill=0;html=1;rounded=0;entryX=0;entryY=0.5;entryDx=0;entryDy=0;exitX=1;exitY=0.5;exitDx=0;exitDy=0;labelBackgroundColor=#FFFFFF;strokeColor=#AF571A;fontColor=#AF571A;fillColor=#ffe6cc;fontSize=13;" parent="1" source="bk1XQgciyBSgys9-w1uZ-10" target="bk1XQgciyBSgys9-w1uZ-12" edge="1">
          <mxGeometry width="160" relative="1" as="geometry">
            <mxPoint x="471" y="383" as="sourcePoint" />
            <mxPoint x="650" y="325" as="targetPoint" />
          </mxGeometry>
        </mxCell>
        <mxCell id="RN2nyBrvlrK0-XFwS11z-33" value="&lt;span style=&quot;border-color: var(--border-color); font-size: 13px;&quot;&gt;&amp;lt;&amp;lt;include&amp;gt;&amp;gt;&lt;/span&gt;" style="endArrow=block;endSize=16;endFill=0;html=1;rounded=0;entryX=0;entryY=0.5;entryDx=0;entryDy=0;exitX=1;exitY=0.5;exitDx=0;exitDy=0;labelBackgroundColor=#FFFFFF;strokeColor=#AF571A;fontColor=#AF571A;fillColor=#ffe6cc;fontSize=13;fontStyle=1" parent="1" source="_6Xi9WKjQx42au5cPFwy-12" target="_6Xi9WKjQx42au5cPFwy-37" edge="1">
          <mxGeometry width="160" relative="1" as="geometry">
            <mxPoint x="451" y="1065" as="sourcePoint" />
            <mxPoint x="648" y="920" as="targetPoint" />
          </mxGeometry>
        </mxCell>
        <mxCell id="RN2nyBrvlrK0-XFwS11z-34" value="&lt;span style=&quot;border-color: var(--border-color); font-size: 13px;&quot;&gt;&amp;lt;&amp;lt;include&amp;gt;&amp;gt;&lt;/span&gt;" style="endArrow=block;endSize=16;endFill=0;html=1;rounded=0;entryX=0;entryY=0.5;entryDx=0;entryDy=0;labelBackgroundColor=#FFFFFF;strokeColor=#AF571A;fontColor=#AF571A;fillColor=#ffe6cc;fontSize=13;fontStyle=1;exitX=1;exitY=0.5;exitDx=0;exitDy=0;" parent="1" source="_6Xi9WKjQx42au5cPFwy-12" target="Hc_B2yePcUhUJdmI350T-1" edge="1">
          <mxGeometry width="160" relative="1" as="geometry">
            <mxPoint x="210" y="890" as="sourcePoint" />
            <mxPoint x="331" y="735" as="targetPoint" />
          </mxGeometry>
        </mxCell>
        <mxCell id="RN2nyBrvlrK0-XFwS11z-35" value="&lt;span style=&quot;border-color: var(--border-color); font-size: 13px;&quot;&gt;&amp;lt;&amp;lt;include&amp;gt;&amp;gt;&lt;/span&gt;" style="endArrow=block;endSize=16;endFill=0;html=1;rounded=0;entryX=0;entryY=0.5;entryDx=0;entryDy=0;exitX=1;exitY=0.5;exitDx=0;exitDy=0;labelBackgroundColor=#FFFFFF;strokeColor=#AF571A;fontColor=#AF571A;fillColor=#ffe6cc;fontSize=13;fontStyle=1" parent="1" source="_6Xi9WKjQx42au5cPFwy-12" target="_6Xi9WKjQx42au5cPFwy-39" edge="1">
          <mxGeometry width="160" relative="1" as="geometry">
            <mxPoint x="220" y="905" as="sourcePoint" />
            <mxPoint x="341" y="745" as="targetPoint" />
          </mxGeometry>
        </mxCell>
        <mxCell id="RN2nyBrvlrK0-XFwS11z-36" value="&lt;b style=&quot;border-color: var(--border-color); font-size: 13px;&quot;&gt;&amp;lt;&amp;lt;include&amp;gt;&amp;gt;&lt;/b&gt;" style="endArrow=block;endSize=16;endFill=0;html=1;rounded=0;labelBackgroundColor=#FFFFFF;strokeColor=#AF571A;fontColor=#AF571A;fillColor=#ffe6cc;fontSize=13;exitX=1;exitY=0.5;exitDx=0;exitDy=0;entryX=0;entryY=0.5;entryDx=0;entryDy=0;" parent="1" source="_6Xi9WKjQx42au5cPFwy-10" target="_6Xi9WKjQx42au5cPFwy-27" edge="1">
          <mxGeometry width="160" relative="1" as="geometry">
            <mxPoint x="470" y="180" as="sourcePoint" />
            <mxPoint x="580" y="250" as="targetPoint" />
          </mxGeometry>
        </mxCell>
        <mxCell id="RN2nyBrvlrK0-XFwS11z-37" value="&lt;b style=&quot;border-color: var(--border-color); font-size: 13px;&quot;&gt;&amp;lt;&amp;lt;include&amp;gt;&amp;gt;&lt;/b&gt;" style="endArrow=block;endSize=16;endFill=0;html=1;rounded=0;labelBackgroundColor=#FFFFFF;strokeColor=#AF571A;fontColor=#AF571A;fillColor=#ffe6cc;fontSize=13;exitX=1;exitY=0.5;exitDx=0;exitDy=0;entryX=0;entryY=0.5;entryDx=0;entryDy=0;" parent="1" source="_6Xi9WKjQx42au5cPFwy-10" target="_6Xi9WKjQx42au5cPFwy-29" edge="1">
          <mxGeometry width="160" relative="1" as="geometry">
            <mxPoint x="450" y="115" as="sourcePoint" />
            <mxPoint x="640" y="25" as="targetPoint" />
          </mxGeometry>
        </mxCell>
        <mxCell id="RN2nyBrvlrK0-XFwS11z-38" value="&lt;b style=&quot;border-color: var(--border-color); font-size: 13px;&quot;&gt;&amp;lt;&amp;lt;include&amp;gt;&amp;gt;&lt;/b&gt;" style="endArrow=block;endSize=16;endFill=0;html=1;rounded=0;labelBackgroundColor=#FFFFFF;strokeColor=#AF571A;fontColor=#AF571A;fillColor=#ffe6cc;fontSize=13;exitX=1;exitY=0.5;exitDx=0;exitDy=0;entryX=0;entryY=0.5;entryDx=0;entryDy=0;" parent="1" source="_6Xi9WKjQx42au5cPFwy-10" target="_6Xi9WKjQx42au5cPFwy-31" edge="1">
          <mxGeometry width="160" relative="1" as="geometry">
            <mxPoint x="450" y="115" as="sourcePoint" />
            <mxPoint x="640" y="115" as="targetPoint" />
          </mxGeometry>
        </mxCell>
        <mxCell id="RN2nyBrvlrK0-XFwS11z-39" value="&lt;b style=&quot;border-color: var(--border-color); font-size: 13px;&quot;&gt;&amp;lt;&amp;lt;include&amp;gt;&amp;gt;&lt;/b&gt;" style="endArrow=block;endSize=16;endFill=0;html=1;rounded=0;labelBackgroundColor=#FFFFFF;strokeColor=#AF571A;fontColor=#AF571A;fillColor=#ffe6cc;fontSize=13;entryX=0;entryY=0.5;entryDx=0;entryDy=0;exitX=1;exitY=0.5;exitDx=0;exitDy=0;" parent="1" source="bk1XQgciyBSgys9-w1uZ-8" target="_6Xi9WKjQx42au5cPFwy-10" edge="1">
          <mxGeometry width="160" relative="1" as="geometry">
            <mxPoint x="170" y="180" as="sourcePoint" />
            <mxPoint x="331" y="151" as="targetPoint" />
          </mxGeometry>
        </mxCell>
        <mxCell id="RN2nyBrvlrK0-XFwS11z-40" value="&lt;b style=&quot;border-color: var(--border-color); font-size: 13px;&quot;&gt;&amp;lt;&amp;lt;include&amp;gt;&amp;gt;&lt;/b&gt;" style="endArrow=block;endSize=16;endFill=0;html=1;rounded=0;labelBackgroundColor=#FFFFFF;strokeColor=#AF571A;fontColor=#AF571A;fillColor=#ffe6cc;fontSize=13;entryX=0;entryY=0.5;entryDx=0;entryDy=0;exitX=1;exitY=0.5;exitDx=0;exitDy=0;" parent="1" source="bk1XQgciyBSgys9-w1uZ-8" target="PiyrbT2MbsPzOBHfRzsW-1" edge="1">
          <mxGeometry width="160" relative="1" as="geometry">
            <mxPoint x="160" y="270" as="sourcePoint" />
            <mxPoint x="280" y="190" as="targetPoint" />
            <mxPoint as="offset" />
          </mxGeometry>
        </mxCell>
        <mxCell id="RN2nyBrvlrK0-XFwS11z-41" value="&lt;b style=&quot;border-color: var(--border-color); font-size: 13px;&quot;&gt;&amp;lt;&amp;lt;include&amp;gt;&amp;gt;&lt;/b&gt;" style="endArrow=block;endSize=16;endFill=0;html=1;rounded=0;labelBackgroundColor=#FFFFFF;strokeColor=#AF571A;fontColor=#AF571A;fillColor=#ffe6cc;fontSize=13;entryX=0;entryY=0.5;entryDx=0;entryDy=0;exitX=1;exitY=0.5;exitDx=0;exitDy=0;" parent="1" source="bk1XQgciyBSgys9-w1uZ-8" target="bk1XQgciyBSgys9-w1uZ-10" edge="1">
          <mxGeometry width="160" relative="1" as="geometry">
            <mxPoint x="130" y="340" as="sourcePoint" />
            <mxPoint x="331" y="331" as="targetPoint" />
          </mxGeometry>
        </mxCell>
        <mxCell id="RN2nyBrvlrK0-XFwS11z-42" value="&lt;span style=&quot;border-color: var(--border-color); font-size: 13px;&quot;&gt;&lt;font style=&quot;border-color: var(--border-color); font-size: 13px;&quot;&gt;&amp;lt;&amp;lt;extend&amp;gt;&amp;gt;&lt;/font&gt;&lt;/span&gt;" style="endArrow=block;endSize=16;endFill=0;html=1;rounded=0;exitX=0;exitY=0.5;exitDx=0;exitDy=0;labelBackgroundColor=#FFFFFF;strokeColor=#AF571A;fontColor=#AF571A;fillColor=#ffe6cc;fontSize=13;fontStyle=1;entryX=1;entryY=0.5;entryDx=0;entryDy=0;" parent="1" source="_6Xi9WKjQx42au5cPFwy-7" target="_6Xi9WKjQx42au5cPFwy-22" edge="1">
          <mxGeometry width="160" relative="1" as="geometry">
            <mxPoint x="541" y="705" as="sourcePoint" />
            <mxPoint x="1320" y="470" as="targetPoint" />
          </mxGeometry>
        </mxCell>
        <mxCell id="RN2nyBrvlrK0-XFwS11z-43" value="&lt;span style=&quot;border-color: var(--border-color); font-size: 13px;&quot;&gt;&lt;font style=&quot;border-color: var(--border-color); font-size: 13px;&quot;&gt;&amp;lt;&amp;lt;extend&amp;gt;&amp;gt;&lt;/font&gt;&lt;/span&gt;" style="endArrow=block;endSize=16;endFill=0;html=1;rounded=0;exitX=0;exitY=0.5;exitDx=0;exitDy=0;labelBackgroundColor=#FFFFFF;strokeColor=#AF571A;fontColor=#AF571A;fillColor=#ffe6cc;fontSize=13;fontStyle=1;entryX=1;entryY=0.5;entryDx=0;entryDy=0;" parent="1" source="_6Xi9WKjQx42au5cPFwy-9" target="_6Xi9WKjQx42au5cPFwy-19" edge="1">
          <mxGeometry width="160" relative="1" as="geometry">
            <mxPoint x="1435" y="451" as="sourcePoint" />
            <mxPoint x="1290" y="455" as="targetPoint" />
          </mxGeometry>
        </mxCell>
      </root>
    </mxGraphModel>
  </diagram>
</mxfile>
